<?xml version="1.0" encoding="utf-8"?>
<!-- Generator: Adobe Illustrator 27.9.0, SVG Export Plug-In . SVG Version: 6.00 Build 0)  -->
<svg version="1.1" id="Layer_1" xmlns="http://www.w3.org/2000/svg" xmlns:xlink="http://www.w3.org/1999/xlink" x="0px" y="0px"
	 viewBox="0 0 1920 1920" style="enable-background:new 0 0 1920 1920;" xml:space="preserve">
<g>
	<rect x="433.9" y="517.4" class="st0" width="1037.6" height="545.7"/>
	<path class="st0" d="M960.4,4C435,4,9,430,9,955.4s426,951.4,951.4,951.4c525.5,0,951.4-426,951.4-951.4S1485.9,4,960.4,4z
		 M1596.5,1171.4c0,57.8-46.8,104.6-104.6,104.6h-421.3l115.5,142.6v79h-473v-79L828.6,1276H429c-57.7,0-104.6-46.8-104.6-104.6
		V517.9c0-57.8,46.8-104.6,104.6-104.6h1062.9c57.7,0,104.6,46.8,104.6,104.6V1171.4z"/>
</g>
</svg>
