<?xml version="1.0" encoding="UTF-8"?>
<svg viewBox="0 0 744.09448819 1052.3622047" xmlns="http://www.w3.org/2000/svg">
 <path d="m324.82 666.01c-2.337-1.0452-6.8068-1.9676-9.9329-2.0497-8.4021-0.22074-60.664-16.689-70.661-22.266-4.7495-2.6495-16.284-8.992-25.632-14.095-25.108-13.705-59.318-42.972-81.322-69.57-18.812-22.74-47.243-71.06-50.478-85.789-0.78278-3.5639-4.2523-15.208-7.7101-25.876-10.299-31.774-13.706-80.341-8.7414-124.6 5.4674-48.741 30.722-109.68 59.866-144.45 5.3782-6.4166 11.691-14.057 14.028-16.979 5.4632-6.8308 19.761-21.128 26.592-26.592 2.922-2.337 10.563-8.6256 16.979-13.975s15.013-11.716 19.102-14.148c21.842-12.989 48.94-26.86 57.362-29.362 56.997-16.937 67.231-18.701 108.35-18.675 30.871 0.01961 61.732 3.2688 75.409 7.9393 4.6805 1.5984 15.68 5.0062 24.444 7.5728 15.777 4.6206 37.309 14.633 59.049 27.456 6.186 3.6489 11.816 6.6344 12.512 6.6344s7.1065 5.0356 14.247 11.19 17.55 14.844 23.133 19.311c13.582 10.867 46.581 51.946 56.569 70.421 4.4196 8.1753 10.442 19.166 13.383 24.425 5.7704 10.316 19.637 52.314 23.297 70.564 4.0317 20.099 4.6261 90.619 0.9445 112.05-13.013 75.756-51.763 140.47-114.12 190.59-15.535 12.486-21.698 16.342-53.659 33.57-15.314 8.2546-45.367 18.483-70.412 23.965-17.034 3.7283-105.57 5.8816-112.6 2.7384zm98.329-34.117c27.911-14.173 59.246-46.93 77.881-81.417 4.3226-7.9994 7.3442-15.887 6.7146-17.527-1.5522-4.0451-120.05-4.4591-124.08-0.43353-2.7491 2.7491-3.845 105.92-1.1537 108.61 3.35 3.35 25.976-1.7928 40.633-9.2357zm-67.523-43.503c0.58425-28.044 0.24437-52.787-0.75531-54.986-1.5943-3.5062-3.394-3.8324-14.652-2.6556-7.059 0.73782-33.727 1.3415-59.262 1.3415-44.541 0-46.428 0.16758-46.428 4.1237 0 2.268 0.8516 4.65 1.8924 5.2932s4.5002 6.1969 7.6875 12.341c22.519 43.413 73.978 87.267 100.9 85.985l9.5603-0.4552 1.0623-50.989zm142.98 28.095c6.0784-3.8276 15.67-9.3248 21.315-12.216 23.574-12.075 80.786-65.798 76.851-72.165-2.0232-3.2736-55.27-2.7976-57.875 0.51734-1.1478 1.4606-7.093 12.357-13.211 24.213s-18.681 31.256-27.916 43.109-16.792 21.99-16.792 22.526c0 2.8387 7.8493 0.17432 17.629-5.9842zm-243.1-3.3376c-1.6031-2.1578-8.7487-11.61-15.879-21.006s-17.047-25.077-22.036-34.849c-13.529-26.495-11.439-25.203-40.749-25.203-21.156 0-25.165 0.51705-25.165 3.246 0 4.178 37.628 41.993 53.991 54.259 27.304 20.468 58.501 35.211 49.839 23.552zm-62.3-108.84c0.77766-1.2583-0.07616-6.2775-1.8974-11.154-5.393-14.44-15.69-70.964-17.048-93.582-0.69272-11.539-2.3504-22.294-3.6836-23.901-1.8755-2.2598-10.178-2.9135-36.687-2.8884-18.845 0.01789-35.669 0.92126-37.386 2.0075-9.1328 5.7759 5.4274 75.128 22.965 109.39 11.783 23.017 10.612 22.417 43.768 22.417 18.104 0 29.073-0.83736 29.97-2.2878zm162.51-3.2466c1.2621-3.3196 1.8787-29.888 1.5408-66.391l-0.56334-60.857-76.483-0.51365c-42.158-0.28313-77.814 0.33632-79.45 1.3803-2.4922 1.5907-2.5874 6.265-0.59419 29.195 3.8136 43.873 16.295 95.907 24.21 100.93 1.4965 0.94962 31.187 1.7412 65.978 1.7591l63.257 0.03253 2.1041-5.5343zm166.4-1.3704c11.734-18.737 28.281-121.05 20.368-125.94-3.1166-1.9262-155.59-1.2409-157.5 0.70791-1.9852 2.0262-4.8276 117.37-3.0653 124.39l1.4116 5.6244h135.79l2.9935-4.7802zm96.234 0c8.5979-9.6334 15.791-25.295 23.84-51.904 9.7134-32.113 15.357-72.237 10.585-75.26s-74.78-2.3514-78.909 0.75567c-2.7367 2.0595-4.0188 8.7888-5.7114 29.978-2.383 29.831-9.4285 70.601-14.107 81.631-1.6275 3.8372-2.9591 9.8124-2.9591 13.278v6.3015h31.498c29.984 0 31.703-0.22974 35.764-4.7802zm-446.8-154.76c1.4006-1.9997 2.8125-10.659 3.1376-19.242 0.83789-22.124 12.031-82.954 17.069-92.766 4.0907-7.9669 1.0328-8.8836-29.636-8.8836-26.562 0-29.991 0.42433-33.743 4.1765-6.0973 6.0973-13.871 22.394-20.395 42.752-3.1493 9.8282-7.0314 21.955-8.627 26.947-4.4855 14.036-6.2732 44.242-2.8616 48.352 2.3839 2.8724 7.9698 3.2931 37.654 2.836 30.101-0.46348 35.203-1.0326 37.402-4.1724zm186.2-57.156c0.58425-32.133 0.22818-59.619-0.79125-61.08-1.4152-2.0276-17.242-2.648-66.922-2.6231-35.788 0.01789-66.091 0.73491-67.34 1.5934-3.9136 2.6901-9.6221 19.78-14.855 44.47-5.4548 25.74-10.491 69.176-8.5936 74.12 0.99746 2.5993 12.908 2.975 79.306 2.5013l78.133-0.55737 1.0623-58.424zm184.35 56.831c5.3366-6.5515-5.554-81.3-15.864-108.88l-3.9706-10.623h-137.96l-1.0623 58.052c-0.58424 31.929-0.29773 59.415 0.6367 61.08 2.3524 4.1926 154.82 4.5513 158.22 0.37228zm109.35 0c3.0979-2.3847 3.1754-4.715 0.75998-22.839-4.5654-34.256-25.202-90.386-36.153-98.335-3.5716-2.5923-62.486-0.60557-65.293 2.2018-1.7917 1.7916-1.4872 4.3421 1.1921 9.9885 1.979 4.1704 4.9768 15.46 6.6618 25.087s4.0511 20.851 5.258 24.94 2.7973 18.274 3.5343 31.52c0.91342 16.418 2.296 25.04 4.3436 27.088 4.0794 4.0794 74.45 4.3868 79.696 0.34808zm-450.48-146.59c1.8519-1.4606 8.4698-12.694 14.706-24.963s18.34-31.291 26.896-42.271c8.8737-11.388 14.759-20.761 13.7-21.82-2.4225-2.4225-37.563 17.816-54.395 31.327-24.574 19.726-55.412 52.688-53.633 57.325 1.5685 4.0874 47.608 4.4383 52.726 0.40183zm156.05-1.8661c2.257-1.8732 2.8581-13.703 2.8581-56.247v-53.875l-5.3113-1.333c-6.9856-1.7533-12.891-0.12875-31.921 8.7806-19.612 9.1819-43.567 29.714-60.221 51.615-15.526 20.418-31.98 50.929-28.595 53.025 4.1203 2.5513 119.98 0.70204 123.19-1.9663zm152.46 0.55271c1.7374-2.8112-16.339-35.026-29.364-52.332-16.404-21.795-37.492-39.924-58.023-49.883-19.787-9.5976-26.265-11.574-31.986-9.7581-3.8104 1.2094-4.1571 4.6434-5.515 54.62-1.056 38.863-0.78847 54.125 0.98605 56.263 1.9664 2.3694 14.015 2.9341 62.598 2.9341 33.09 0 60.676-0.83005 61.303-1.8446zm89.234-0.00673c1.6361-2.6473-23.225-31.088-39.31-44.97-21.168-18.269-29.41-24.178-46.146-33.087l-22.307-11.875c-3.7352-1.9887-7.476-3.6618-8.313-3.7179-2.4763-0.16605 5.8882 12.621 19.01 29.062 6.7402 8.4448 17.991 26.342 25.002 39.771s14.181 24.813 15.934 25.296c6.3198 1.7442 55.014 1.3288 56.131-0.47887z"/>
</svg>
