<?xml version="1.0" encoding="utf-8"?>
<!-- Generator: Adobe Illustrator 27.9.0, SVG Export Plug-In . SVG Version: 6.00 Build 0)  -->
<svg version="1.1" id="Layer_1" xmlns="http://www.w3.org/2000/svg" xmlns:xlink="http://www.w3.org/1999/xlink" x="0px" y="0px"
	 viewBox="0 0 595.3 841.9" style="enable-background:new 0 0 595.3 841.9;" xml:space="preserve">
<style type="text/css">
	.st0{fill:#13151a;}
</style>
<path class="st0" d="M297.9,735.1c-15.3,0-27.8,12.5-27.8,27.8c0,15.3,12.5,27.8,27.8,27.8c15.3,0,27.8-12.5,27.8-27.8
	C325.7,747.5,313.3,735.1,297.9,735.1z"/>
<rect x="128.8" y="122" class="st0" width="337.4" height="597.1"/>
<path class="st0" d="M271.4,77.3H324c0.6,0,1.1-0.5,1.1-1.1s-0.5-1.1-1.1-1.1h-52.7c-0.6,0-1.1,0.5-1.1,1.1S270.7,77.3,271.4,77.3z"
	/>
<path class="st0" d="M236.8,83.9c3.1,0,5.6-2.5,5.6-5.6c0-3.1-2.5-5.6-5.6-5.6c-3.1,0-5.6,2.5-5.6,5.6
	C231.2,81.4,233.7,83.9,236.8,83.9z"/>
<path class="st0" d="M297.7,58.5c2,0,3.6-1.6,3.6-3.6c0-2-1.6-3.6-3.6-3.6s-3.6,1.6-3.6,3.6C294.1,56.9,295.7,58.5,297.7,58.5z"/>
<path class="st0" d="M443.7,37.2H151.3c-19.5,0-35.5,15.9-35.5,35.5v696.2c0,19.5,15.9,35.5,35.5,35.5h292.3
	c19.5,0,35.5-15.9,35.5-35.5V72.7C479.1,53.1,463.2,37.2,443.7,37.2z M297.7,49.3c3.1,0,5.6,2.5,5.6,5.6s-2.5,5.6-5.6,5.6
	c-3.1,0-5.6-2.5-5.6-5.6S294.6,49.3,297.7,49.3z M271.4,73.1H324c1.7,0,3.1,1.4,3.1,3.1s-1.4,3.1-3.1,3.1h-52.7
	c-1.7,0-3.1-1.4-3.1-3.1S269.6,73.1,271.4,73.1z M236.8,70.7c4.2,0,7.6,3.4,7.6,7.6s-3.4,7.6-7.6,7.6s-7.6-3.4-7.6-7.6
	S232.6,70.7,236.8,70.7z M297.9,792.6c-16.4,0-29.8-13.4-29.8-29.8c0-16.4,13.4-29.8,29.8-29.8c16.4,0,29.8,13.4,29.8,29.8
	C327.7,779.3,314.4,792.6,297.9,792.6z M468.2,721.1H126.8V120h341.4V721.1z"/>
<path class="st0" d="M0,0v841.9h595.3V0H0z M487.8,767.8c0,25.5-20.4,45.5-46.4,45.5H153.5c-26,0-46.4-20-46.4-45.5V73.5
	c0-25.1,20.4-44.8,46.4-44.8h287.9c26,0,46.4,19.7,46.4,44.8V767.8z"/>
<path class="st0" d="M441.5,30.7H153.5c-24.9,0-44.4,18.8-44.4,42.8v694.2c0,24.4,19.5,43.5,44.4,43.5h287.9
	c24.9,0,44.4-19.1,44.4-43.5V73.5C485.8,49.5,466.4,30.7,441.5,30.7z M481.1,768.8c0,20.7-16.8,37.5-37.5,37.5H151.3
	c-20.7,0-37.5-16.8-37.5-37.5V72.7c0-20.7,16.8-37.5,37.5-37.5h292.3c20.7,0,37.5,16.8,37.5,37.5V768.8z"/>
</svg>
